<?xml version="1.0" encoding="UTF-8"?>
<svg version="1.1" xmlns="http://www.w3.org/2000/svg" width="512" height="512">
<path d="M0 0 C3.06856934 2.64643811 4.8231393 5.2009697 6.515625 8.859375 C6.96292969 9.81199219 7.41023437 10.76460937 7.87109375 11.74609375 C8.32613281 12.73738281 8.78117188 13.72867188 9.25 14.75 C13.29865675 23.45283107 17.49899793 32.06553283 21.81335449 40.63879395 C24.06019237 45.10958759 26.29457727 49.5866149 28.53125 54.0625 C29.51687796 56.03387873 30.50255563 58.0052326 31.48828125 59.9765625 C33.49609375 63.9921875 35.50390625 68.0078125 37.51171875 72.0234375 C38.00292206 73.0056427 38.49412537 73.9878479 39.00021362 74.99981689 C39.97150812 76.94280958 40.94216079 78.88612326 41.91213989 80.82977295 C44.0682461 85.14852482 46.23123546 89.46308238 48.42529297 93.76269531 C48.79344116 94.4877124 49.16158936 95.21272949 49.54089355 95.9597168 C50.20775735 97.27163363 50.87850742 98.58158718 51.55432129 99.88891602 C53.51334875 103.75337971 54.87555957 107.60810823 56.125 111.75 C57.64625719 114.74396361 58.81358524 116.49914826 61.95703125 117.82617188 C67.44831026 119.38126517 73.07403329 120.00849934 78.734375 120.62890625 C83.21678994 121.13827158 87.66903752 121.81665229 92.13037109 122.48291016 C96.86044353 123.1828049 101.59659671 123.83583426 106.33300781 124.49121094 C112.55737403 125.35483139 118.77868868 126.23968835 125 127.125 C126.12615723 127.28355469 127.25231445 127.44210938 128.41259766 127.60546875 C133.72788182 128.35992686 139.02789076 129.1606932 144.3203125 130.0625 C148.83662957 130.82756322 153.3186282 131.41083738 157.875 131.875 C164.88333814 132.6689676 171.85343279 133.665049 178.8125 134.8125 C179.7617334 134.95349121 180.7109668 135.09448242 181.68896484 135.23974609 C185.83806823 135.95634814 188.39121952 136.50398928 191.69921875 139.19921875 C193.04402799 142.094799 193.30658641 143.85990295 192.76737976 146.99668884 C191.06736083 151.43473512 187.22694489 154.53292174 183.87890625 157.77734375 C183.06381088 158.58869278 182.24871552 159.40004181 181.40892029 160.23597717 C179.68836861 161.9431114 177.96064956 163.64304825 176.22631836 165.33618164 C173.56153136 167.93844591 170.91888246 170.5616525 168.27929688 173.18945312 C166.60541008 174.84500813 164.93032085 176.49934845 163.25390625 178.15234375 C162.45803604 178.9397142 161.66216583 179.72708466 160.84217834 180.53831482 C160.10478928 181.2564888 159.36740021 181.97466278 158.60766602 182.71459961 C157.95782242 183.3507872 157.30797882 183.98697479 156.63844299 184.6424408 C155 186 155 186 153 186 C152.67 186.99 152.34 187.98 152 189 C150.4083252 190.57043457 150.4083252 190.57043457 148.39257812 192.23632812 C144.29462385 195.71532768 140.49235263 199.3939546 136.71875 203.21875 C136.06096558 203.88032104 135.40318115 204.54189209 134.72546387 205.22351074 C132.64782726 207.31322735 130.57349373 209.40617315 128.5 211.5 C125.7634185 214.263417 123.02337737 217.02333722 120.28125 219.78125 C119.66954956 220.40124878 119.05784912 221.02124756 118.4276123 221.66003418 C115.33100585 224.7738545 112.17563873 227.76091597 108.85742188 230.63867188 C108.19799591 231.21565826 107.53856995 231.79264465 106.85916138 232.38711548 C105.24170043 233.79031681 103.60737107 235.17402771 101.97021484 236.55419922 C99.72827524 238.85284021 99.72827524 238.85284021 99.83056641 241.88720703 C100.04374512 242.95825684 100.25692383 244.02930664 100.4765625 245.1328125 C100.70504883 246.37063477 100.93353516 247.60845703 101.16894531 248.88378906 C101.37203308 249.88230896 101.37203308 249.88230896 101.57922363 250.90100098 C102.01286197 253.06416057 102.40026908 255.23140504 102.77636719 257.40527344 C103.46758936 261.39147745 104.18617441 265.37209078 104.91390991 269.35177612 C105.70293412 273.66955429 106.48253212 277.98903106 107.26171875 282.30859375 C107.41447769 283.15504959 107.56723663 284.00150543 107.72462463 284.87361145 C109.42386864 294.31470983 111.00363832 303.77422866 112.54833984 313.24169922 C113.18878638 317.15292351 113.84132808 321.06209628 114.49462891 324.97119141 C114.82802003 326.96928332 115.159762 328.96765119 115.48974609 330.96630859 C116.35247431 336.18302439 117.24370283 341.39285082 118.17578125 346.59765625 C118.36591797 347.67982422 118.55605469 348.76199219 118.75195312 349.87695312 C119.11561436 351.94361332 119.48752179 354.0088459 119.86914062 356.07226562 C121.93610206 367.94299674 121.93610206 367.94299674 118.8125 372.875 C116.16456827 374.51854383 114.11444625 374.77989779 111 375 C108.50388062 374.07974394 106.4336333 373.13970868 104.125 371.875 C103.45082031 371.52244141 102.77664063 371.16988281 102.08203125 370.80664062 C99.71024136 369.55755412 97.35469907 368.28100699 95 367 C94.06639648 366.49500977 93.13279297 365.99001953 92.17089844 365.46972656 C88.06299729 363.24746335 83.95687886 361.02206906 79.85693359 358.78515625 C73.59038261 355.37225658 67.28296412 352.09426368 60.875 348.95703125 C55.49226798 346.29902928 50.24657998 343.41614193 45 340.5 C38.46157095 336.8674707 31.89508035 333.3539343 25.17041016 330.07836914 C21.2412448 328.15532307 17.38524913 326.13380685 13.55078125 324.02734375 C12.61032959 323.51623047 11.66987793 323.00511719 10.70092773 322.47851562 C8.8532862 321.47097235 7.01256012 320.45061484 5.17993164 319.41601562 C0.35708157 316.79319741 0.35708157 316.79319741 -4.96875 315.84375 C-9.68833696 317.64400482 -13.99021483 320.06885832 -18.375 322.5625 C-20.36731105 323.67269051 -22.36080668 324.78075785 -24.35546875 325.88671875 C-25.32661621 326.42603027 -26.29776367 326.9653418 -27.29833984 327.52099609 C-30.72032665 329.39433751 -34.18492178 331.15831947 -37.6875 332.875 C-53.42764232 340.62695793 -68.99315988 348.74782033 -84.375 357.1875 C-87.91586878 359.12646222 -91.45736754 361.06426186 -95 363 C-96.42143311 363.77730469 -96.42143311 363.77730469 -97.87158203 364.5703125 C-100.72070487 366.12116736 -103.57781525 367.65622544 -106.4375 369.1875 C-107.29585449 369.65760498 -108.15420898 370.12770996 -109.03857422 370.61206055 C-113.75636172 373.11905889 -117.62022282 374.82271964 -123 375 C-125.875 373.4375 -125.875 373.4375 -128 371 C-129.53584997 365.57145711 -128.55546229 360.75212878 -127.59375 355.3203125 C-127.43372498 354.37167328 -127.27369995 353.42303406 -127.10882568 352.44564819 C-126.5819435 349.33708111 -126.04111853 346.23111773 -125.5 343.125 C-125.13039854 340.96172275 -124.76159188 338.79830956 -124.39355469 336.63476562 C-123.27626461 330.08740932 -122.14008188 323.54342057 -121 317 C-120.66469056 315.07129306 -120.32940312 313.14258229 -119.99414062 311.21386719 C-118.79488344 304.32238477 -117.59149292 297.43164651 -116.3762207 290.54296875 C-114.60406617 280.49603433 -112.87439092 270.44372779 -111.24121094 260.37304688 C-111.0347998 259.10944336 -111.0347998 259.10944336 -110.82421875 257.8203125 C-110.69450684 257.0252832 -110.56479492 256.23025391 -110.43115234 255.41113281 C-109.82529344 252.0229887 -109.06373262 248.67111088 -108.28051758 245.31982422 C-107.95282543 242.60987577 -108.24840986 240.61837315 -109 238 C-110.9997509 235.47792131 -110.9997509 235.47792131 -113.5625 233.125 C-114.38878906 232.32320312 -115.21507812 231.52140625 -116.06640625 230.6953125 C-118.18134058 228.75216378 -120.31131141 226.88290049 -122.49609375 225.0234375 C-129.45869716 218.96492966 -135.81521394 212.23815221 -142.30029297 205.67919922 C-144.06263896 203.89858061 -145.82812932 202.12112065 -147.59375 200.34375 C-148.11795532 199.81124634 -148.64216064 199.27874268 -149.18225098 198.73010254 C-151.97544253 195.91896523 -154.83515757 193.24160499 -157.83422852 190.65039062 C-165.14161546 184.32362795 -171.92078866 177.4209711 -178.78393555 170.62109375 C-180.559333 168.86742119 -182.34097461 167.12004868 -184.12866211 165.37890625 C-186.72406246 162.85028618 -189.29933891 160.30263837 -191.87109375 157.75 C-192.67203964 156.97688477 -193.47298553 156.20376953 -194.29820251 155.40722656 C-197.62087506 152.07200961 -199.73823232 149.77702279 -201.25805664 145.265625 C-200.9335101 141.15859138 -200.07290305 139.72167008 -197 137 C-194.2487793 136.02099609 -194.2487793 136.02099609 -191.07421875 135.5234375 C-189.88248047 135.3275 -188.69074219 135.1315625 -187.46289062 134.9296875 C-186.21701172 134.74664062 -184.97113281 134.56359375 -183.6875 134.375 C-182.51509766 134.18421875 -181.34269531 133.9934375 -180.13476562 133.796875 C-171.4514161 132.41637428 -162.7346713 131.30671745 -154.01463318 130.18635559 C-143.23768076 128.79138874 -132.49471854 127.18454254 -121.75 125.5625 C-117.64461963 124.94472401 -113.53911098 124.3278032 -109.43359375 123.7109375 C-108.44191696 123.5616832 -107.45024017 123.41242889 -106.42851257 123.25865173 C-100.65470792 122.39149223 -94.87847231 121.54560441 -89.09765625 120.7265625 C-87.83920898 120.54665771 -86.58076172 120.36675293 -85.28417969 120.18139648 C-83.04473554 119.86280327 -80.80454041 119.54942438 -78.56347656 119.24243164 C-77.60022461 119.10442139 -76.63697266 118.96641113 -75.64453125 118.82421875 C-74.83346924 118.71166748 -74.02240723 118.59911621 -73.18676758 118.4831543 C-69.68830642 117.7101885 -67.64251556 117.00178924 -65.66308594 113.91552734 C-65.27411133 113.0642627 -64.88513672 112.21299805 -64.484375 111.3359375 C-64.04230713 110.38726807 -63.60023926 109.43859863 -63.14477539 108.46118164 C-62.68449951 107.4427417 -62.22422363 106.42430176 -61.75 105.375 C-60.7653977 103.25601068 -59.77971739 101.13752194 -58.79296875 99.01953125 C-58.3139209 97.9826416 -57.83487305 96.94575195 -57.34130859 95.87744141 C-55.64531119 92.23910405 -53.87408099 88.64435869 -52.0625 85.0625 C-51.75473633 84.45132324 -51.44697266 83.84014648 -51.12988281 83.21044922 C-50.46751704 81.89538967 -49.80456764 80.58062396 -49.14111328 79.26611328 C-46.74938943 74.51643831 -44.37674971 69.75718031 -42 65 C-36.17514241 53.34129722 -36.17514241 53.34129722 -33.9453125 48.92578125 C-30.74882763 42.58608625 -27.61592624 36.21907441 -24.5390625 29.8203125 C-24.07435043 28.85447487 -24.07435043 28.85447487 -23.60025024 27.86912537 C-22.03700139 24.6188082 -20.47712688 21.36693337 -18.92236328 18.11254883 C-11.17628982 1.94103186 -11.17628982 1.94103186 -8.125 -0.5 C-5.06873862 -1.21912032 -3.00778558 -0.87727079 0 0 Z " fill="#2EB7A7" transform="translate(260,69)"/>
</svg>
