<?xml version="1.0" encoding="UTF-8"?>
<svg version="1.1" xmlns="http://www.w3.org/2000/svg" width="512" height="512">
<path d="M0 0 C3.06856934 2.64643811 4.8231393 5.2009697 6.515625 8.859375 C6.96292969 9.81199219 7.41023437 10.76460937 7.87109375 11.74609375 C8.32613281 12.73738281 8.78117188 13.72867188 9.25 14.75 C13.29865675 23.45283107 17.49899793 32.06553283 21.81335449 40.63879395 C24.06019237 45.10958759 26.29457727 49.5866149 28.53125 54.0625 C29.51687796 56.03387873 30.50255563 58.0052326 31.48828125 59.9765625 C33.49609375 63.9921875 35.50390625 68.0078125 37.51171875 72.0234375 C38.00292206 73.0056427 38.49412537 73.9878479 39.00021362 74.99981689 C39.97150812 76.94280958 40.94216079 78.88612326 41.91213989 80.82977295 C44.0682461 85.14852482 46.23123546 89.46308238 48.42529297 93.76269531 C48.79344116 94.4877124 49.16158936 95.21272949 49.54089355 95.9597168 C50.20775735 97.27163363 50.87850742 98.58158718 51.55432129 99.88891602 C53.51334875 103.75337971 54.87555957 107.60810823 56.125 111.75 C57.64625719 114.74396361 58.81358524 116.49914826 61.95703125 117.82617188 C67.44831026 119.38126517 73.07403329 120.00849934 78.734375 120.62890625 C83.21678994 121.13827158 87.66903752 121.81665229 92.13037109 122.48291016 C96.86044353 123.1828049 101.59659671 123.83583426 106.33300781 124.49121094 C112.55737403 125.35483139 118.77868868 126.23968835 125 127.125 C126.12615723 127.28355469 127.25231445 127.44210938 128.41259766 127.60546875 C133.72788182 128.35992686 139.02789076 129.1606932 144.3203125 130.0625 C148.83662957 130.82756322 153.3186282 131.41083738 157.875 131.875 C164.88333814 132.6689676 171.85343279 133.665049 178.8125 134.8125 C179.7617334 134.95349121 180.7109668 135.09448242 181.68896484 135.23974609 C185.83806823 135.95634814 188.39121952 136.50398928 191.69921875 139.19921875 C193.04402799 142.094799 193.30658641 143.85990295 192.76737976 146.99668884 C191.06736083 151.43473512 187.22694489 154.53292174 183.87890625 157.77734375 C183.06381088 158.58869278 182.24871552 159.40004181 181.40892029 160.23597717 C179.68836861 161.9431114 177.96064956 163.64304825 176.22631836 165.33618164 C173.56153136 167.93844591 170.91888246 170.5616525 168.27929688 173.18945312 C166.60541008 174.84500813 164.93032085 176.49934845 163.25390625 178.15234375 C162.45803604 178.9397142 161.66216583 179.72708466 160.84217834 180.53831482 C160.10478928 181.2564888 159.36740021 181.97466278 158.60766602 182.71459961 C157.95782242 183.3507872 157.30797882 183.98697479 156.63844299 184.6424408 C155 186 155 186 153 186 C152.67 186.99 152.34 187.98 152 189 C150.4083252 190.57043457 150.4083252 190.57043457 148.39257812 192.23632812 C144.29462385 195.71532768 140.49235263 199.3939546 136.71875 203.21875 C136.06096558 203.88032104 135.40318115 204.54189209 134.72546387 205.22351074 C132.64782726 207.31322735 130.57349373 209.40617315 128.5 211.5 C125.7634185 214.263417 123.02337737 217.02333722 120.28125 219.78125 C119.66954956 220.40124878 119.05784912 221.02124756 118.4276123 221.66003418 C115.33100585 224.7738545 112.17563873 227.76091597 108.85742188 230.63867188 C108.19799591 231.21565826 107.53856995 231.79264465 106.85916138 232.38711548 C105.24170043 233.79031681 103.60737107 235.17402771 101.97021484 236.55419922 C99.72827524 238.85284021 99.72827524 238.85284021 99.83056641 241.88720703 C100.04374512 242.95825684 100.25692383 244.02930664 100.4765625 245.1328125 C100.70504883 246.37063477 100.93353516 247.60845703 101.16894531 248.88378906 C101.37203308 249.88230896 101.37203308 249.88230896 101.57922363 250.90100098 C102.01286197 253.06416057 102.40026908 255.23140504 102.77636719 257.40527344 C103.46758936 261.39147745 104.18617441 265.37209078 104.91390991 269.35177612 C105.70293412 273.66955429 106.48253212 277.98903106 107.26171875 282.30859375 C107.41447769 283.15504959 107.56723663 284.00150543 107.72462463 284.87361145 C109.42386864 294.31470983 111.00363832 303.77422866 112.54833984 313.24169922 C113.18878638 317.15292351 113.84132808 321.06209628 114.49462891 324.97119141 C114.82802003 326.96928332 115.159762 328.96765119 115.48974609 330.96630859 C116.35247431 336.18302439 117.24370283 341.39285082 118.17578125 346.59765625 C118.36591797 347.67982422 118.55605469 348.76199219 118.75195312 349.87695312 C119.11561436 351.94361332 119.48752179 354.0088459 119.86914062 356.07226562 C121.93610206 367.94299674 121.93610206 367.94299674 118.8125 372.875 C116.16456827 374.51854383 114.11444625 374.77989779 111 375 C108.50388062 374.07974394 106.4336333 373.13970868 104.125 371.875 C103.45082031 371.52244141 102.77664063 371.16988281 102.08203125 370.80664062 C99.71024136 369.55755412 97.35469907 368.28100699 95 367 C94.06639648 366.49500977 93.13279297 365.99001953 92.17089844 365.46972656 C88.06299729 363.24746335 83.95687886 361.02206906 79.85693359 358.78515625 C73.59038261 355.37225658 67.28296412 352.09426368 60.875 348.95703125 C55.49226798 346.29902928 50.24657998 343.41614193 45 340.5 C38.46157095 336.8674707 31.89508035 333.3539343 25.17041016 330.07836914 C21.2412448 328.15532307 17.38524913 326.13380685 13.55078125 324.02734375 C12.61032959 323.51623047 11.66987793 323.00511719 10.70092773 322.47851562 C8.8532862 321.47097235 7.01256012 320.45061484 5.17993164 319.41601562 C0.35708157 316.79319741 0.35708157 316.79319741 -4.96875 315.84375 C-9.68833696 317.64400482 -13.99021483 320.06885832 -18.375 322.5625 C-20.36731105 323.67269051 -22.36080668 324.78075785 -24.35546875 325.88671875 C-25.32661621 326.42603027 -26.29776367 326.9653418 -27.29833984 327.52099609 C-30.72032665 329.39433751 -34.18492178 331.15831947 -37.6875 332.875 C-53.42764232 340.62695793 -68.99315988 348.74782033 -84.375 357.1875 C-87.91586878 359.12646222 -91.45736754 361.06426186 -95 363 C-96.42143311 363.77730469 -96.42143311 363.77730469 -97.87158203 364.5703125 C-100.72070487 366.12116736 -103.57781525 367.65622544 -106.4375 369.1875 C-107.29585449 369.65760498 -108.15420898 370.12770996 -109.03857422 370.61206055 C-113.75636172 373.11905889 -117.62022282 374.82271964 -123 375 C-125.875 373.4375 -125.875 373.4375 -128 371 C-129.53584997 365.57145711 -128.55546229 360.75212878 -127.59375 355.3203125 C-127.43372498 354.37167328 -127.27369995 353.42303406 -127.10882568 352.44564819 C-126.5819435 349.33708111 -126.04111853 346.23111773 -125.5 343.125 C-125.13039854 340.96172275 -124.76159188 338.79830956 -124.39355469 336.63476562 C-123.27626461 330.08740932 -122.14008188 323.54342057 -121 317 C-120.66469056 315.07129306 -120.32940312 313.14258229 -119.99414062 311.21386719 C-118.79488344 304.32238477 -117.59149292 297.43164651 -116.3762207 290.54296875 C-114.60406617 280.49603433 -112.87439092 270.44372779 -111.24121094 260.37304688 C-111.0347998 259.10944336 -111.0347998 259.10944336 -110.82421875 257.8203125 C-110.69450684 257.0252832 -110.56479492 256.23025391 -110.43115234 255.41113281 C-109.82529344 252.0229887 -109.06373262 248.67111088 -108.28051758 245.31982422 C-107.95282543 242.60987577 -108.24840986 240.61837315 -109 238 C-110.9997509 235.47792131 -110.9997509 235.47792131 -113.5625 233.125 C-114.38878906 232.32320312 -115.21507812 231.52140625 -116.06640625 230.6953125 C-118.18134058 228.75216378 -120.31131141 226.88290049 -122.49609375 225.0234375 C-129.45869716 218.96492966 -135.81521394 212.23815221 -142.30029297 205.67919922 C-144.06263896 203.89858061 -145.82812932 202.12112065 -147.59375 200.34375 C-148.11795532 199.81124634 -148.64216064 199.27874268 -149.18225098 198.73010254 C-151.97544253 195.91896523 -154.83515757 193.24160499 -157.83422852 190.65039062 C-165.14161546 184.32362795 -171.92078866 177.4209711 -178.78393555 170.62109375 C-180.559333 168.86742119 -182.34097461 167.12004868 -184.12866211 165.37890625 C-186.72406246 162.85028618 -189.29933891 160.30263837 -191.87109375 157.75 C-192.67203964 156.97688477 -193.47298553 156.20376953 -194.29820251 155.40722656 C-197.62087506 152.07200961 -199.73823232 149.77702279 -201.25805664 145.265625 C-200.9335101 141.15859138 -200.07290305 139.72167008 -197 137 C-194.2487793 136.02099609 -194.2487793 136.02099609 -191.07421875 135.5234375 C-189.88248047 135.3275 -188.69074219 135.1315625 -187.46289062 134.9296875 C-186.21701172 134.74664062 -184.97113281 134.56359375 -183.6875 134.375 C-182.51509766 134.18421875 -181.34269531 133.9934375 -180.13476562 133.796875 C-171.4514161 132.41637428 -162.7346713 131.30671745 -154.01463318 130.18635559 C-143.23768076 128.79138874 -132.49471854 127.18454254 -121.75 125.5625 C-117.64461963 124.94472401 -113.53911098 124.3278032 -109.43359375 123.7109375 C-108.44191696 123.5616832 -107.45024017 123.41242889 -106.42851257 123.25865173 C-100.65470792 122.39149223 -94.87847231 121.54560441 -89.09765625 120.7265625 C-87.83920898 120.54665771 -86.58076172 120.36675293 -85.28417969 120.18139648 C-83.04473554 119.86280327 -80.80454041 119.54942438 -78.56347656 119.24243164 C-77.60022461 119.10442139 -76.63697266 118.96641113 -75.64453125 118.82421875 C-74.83346924 118.71166748 -74.02240723 118.59911621 -73.18676758 118.4831543 C-69.68830642 117.7101885 -67.64251556 117.00178924 -65.66308594 113.91552734 C-65.27411133 113.0642627 -64.88513672 112.21299805 -64.484375 111.3359375 C-64.04230713 110.38726807 -63.60023926 109.43859863 -63.14477539 108.46118164 C-62.68449951 107.4427417 -62.22422363 106.42430176 -61.75 105.375 C-60.7653977 103.25601068 -59.77971739 101.13752194 -58.79296875 99.01953125 C-58.3139209 97.9826416 -57.83487305 96.94575195 -57.34130859 95.87744141 C-55.64531119 92.23910405 -53.87408099 88.64435869 -52.0625 85.0625 C-51.75473633 84.45132324 -51.44697266 83.84014648 -51.12988281 83.21044922 C-50.46751704 81.89538967 -49.80456764 80.58062396 -49.14111328 79.26611328 C-46.74938943 74.51643831 -44.37674971 69.75718031 -42 65 C-36.17514241 53.34129722 -36.17514241 53.34129722 -33.9453125 48.92578125 C-30.74882763 42.58608625 -27.61592624 36.21907441 -24.5390625 29.8203125 C-24.07435043 28.85447487 -24.07435043 28.85447487 -23.60025024 27.86912537 C-22.03700139 24.6188082 -20.47712688 21.36693337 -18.92236328 18.11254883 C-11.17628982 1.94103186 -11.17628982 1.94103186 -8.125 -0.5 C-5.06873862 -1.21912032 -3.00778558 -0.87727079 0 0 Z " fill="#22897E" transform="translate(260,69)"/>
<path d="M0 0 C1.56170697 1.88641057 2.79056947 3.8347289 4.03697205 5.94270325 C5.04937381 7.51035187 6.06376506 9.07671709 7.0799408 10.641922 C7.59347107 11.45580383 8.10700134 12.26968567 8.63609314 13.10823059 C11.21701294 17.10457029 14.03673231 20.92028785 16.84947205 24.75520325 C17.94691924 26.26873422 19.04329174 27.78304509 20.13853455 29.298172 C20.66221619 30.02181946 21.18589783 30.74546692 21.72544861 31.49104309 C24.30568203 35.06554887 26.86284053 38.65641721 29.42076111 42.24690247 C32.24497705 46.20691976 35.08980967 50.15158333 37.94248962 54.09114075 C40.70874988 57.91263127 43.46775271 61.73932626 46.22447205 65.56770325 C46.80181091 66.36869446 47.37914978 67.16968567 47.97398376 67.99494934 C49.66702588 70.348737 51.35302634 72.70740214 53.03697205 75.06770325 C53.81983582 76.15402039 53.81983582 76.15402039 54.61851501 77.26228333 C58.22447205 82.33817293 58.22447205 82.33817293 58.22447205 84.56770325 C50.13754895 84.20082292 43.0524601 82.1714793 35.4158783 79.5872345 C33.54185572 78.96744272 31.66783299 78.34765144 29.79380322 77.72788143 C27.8149646 77.07121594 25.83790284 76.40944925 23.86131287 75.74604797 C19.73412668 74.36089623 15.60229716 72.98998901 11.46958923 71.62141418 C6.6111008 70.01162135 1.75359565 68.39893852 -3.10246849 66.781847 C-12.88605966 63.52436473 -22.68610485 60.31902767 -32.49494934 57.13847351 C-36.73394264 55.76359441 -40.97142926 54.38408551 -45.2091217 53.00520325 C-46.05057739 52.73151413 -46.89203308 52.45782501 -47.75898743 52.17584229 C-106.39544033 33.10369316 -106.39544033 33.10369316 -134.77552795 23.56770325 C-134.02552795 18.81770325 -134.02552795 18.81770325 -131.77552795 16.56770325 C-129.25135803 15.92927551 -129.25135803 15.92927551 -126.0450592 15.3841095 C-124.84687561 15.17850403 -123.64869202 14.97289856 -122.41419983 14.76106262 C-121.15156311 14.55287903 -119.88892639 14.34469543 -118.58802795 14.13020325 C-117.40660217 13.92588684 -116.22517639 13.72157043 -115.00794983 13.51106262 C-106.30099394 12.04081915 -97.56945663 10.86789988 -88.81103516 9.74911499 C-77.90038684 8.34633722 -67.02703429 6.71136777 -56.15052795 5.06770325 C-49.31442179 4.03835853 -42.47757949 3.01415641 -35.6396637 1.99690247 C-32.75586889 1.56475728 -29.87363258 1.12307887 -26.99134827 0.6809845 C-25.14081321 0.40330147 -23.29022924 0.12594416 -21.43959045 -0.15104675 C-20.61196198 -0.28063782 -19.7843335 -0.41022888 -18.93162537 -0.54374695 C-3.49789012 -2.82170531 -3.49789012 -2.82170531 0 0 Z " fill="#2EB7A7" transform="translate(194.77552795410156,189.4322967529297)"/>
<path d="M0 0 C-0.61359713 3.27115144 -1.73723383 5.30638015 -3.73828125 7.94921875 C-4.58821655 9.08435913 -4.58821655 9.08435913 -5.45532227 10.24243164 C-6.37462524 11.45274048 -6.37462524 11.45274048 -7.3125 12.6875 C-8.60037803 14.40779224 -9.886811 16.12916715 -11.171875 17.8515625 C-11.81833984 18.7168457 -12.46480469 19.58212891 -13.13085938 20.47363281 C-15.83478665 24.12831404 -18.45531934 27.83845833 -21.0625 31.5625 C-26.75350792 39.67412618 -32.54510962 47.7099419 -38.35888672 55.73388672 C-41.07648163 59.48644785 -43.78801939 63.24338045 -46.5 67 C-49.75869057 71.51391895 -53.0186666 76.02687665 -56.28515625 80.53515625 C-61.56580422 87.82747964 -66.8195134 95.1361012 -72 102.5 C-78.79232824 112.15508101 -85.71819915 121.7120552 -92.64550781 131.27050781 C-100.50973838 142.12529546 -108.29454728 153.03187811 -116 164 C-117.32 163.67 -118.64 163.34 -120 163 C-121.36086713 157.45593583 -120.56984003 152.83333521 -119.59375 147.3203125 C-119.35371246 145.89735367 -119.35371246 145.89735367 -119.10882568 144.44564819 C-118.5819435 141.33708111 -118.04111853 138.23111773 -117.5 135.125 C-117.13039854 132.96172275 -116.76159188 130.79830956 -116.39355469 128.63476562 C-115.27626461 122.08740932 -114.14008188 115.54342057 -113 109 C-112.66469056 107.07129306 -112.32940312 105.14258229 -111.99414062 103.21386719 C-110.79435556 96.319418 -109.5907686 89.42565782 -108.37402344 82.53417969 C-106.62216368 72.60889724 -104.90990813 62.67892264 -103.32910156 52.72460938 C-103.05921813 51.05871017 -102.76710989 49.39624883 -102.45214844 47.73828125 C-101.93670619 44.8759387 -101.93670619 44.8759387 -101.74316406 41.44921875 C-101.29217001 37.53446765 -100.71739437 34.55363377 -99 31 C-94.50004214 27.78562939 -89.5220942 26.62150923 -84.25 25.25 C-82.69331476 24.79714498 -81.13858174 24.33753456 -79.58569336 23.87182617 C-77.01675415 23.10413824 -74.44681947 22.34352085 -71.86949158 21.60441589 C-64.03191846 19.35487058 -56.29024547 16.85024266 -48.55078125 14.28515625 C-47.31373444 13.87532501 -46.07668762 13.46549377 -44.80215454 13.04324341 C-42.30055685 12.21340379 -39.79916285 11.38294985 -37.29797363 10.55187988 C-31.28800612 8.55785354 -25.27239253 6.581427 -19.25390625 4.61328125 C-18.19077713 4.26282242 -17.12764801 3.91236359 -16.03230286 3.55128479 C-14.55367012 3.06824135 -14.55367012 3.06824135 -13.04516602 2.57543945 C-12.18778336 2.29408646 -11.3304007 2.01273346 -10.44703674 1.72285461 C-6.90647268 0.67697205 -3.69836345 0 0 0 Z " fill="#2EB7A7" transform="translate(252,277)"/>
<path d="M0 0 C6 1 6 1 7.45629883 2.55615234 C7.95166138 3.560896 7.95166138 3.560896 8.45703125 4.5859375 C8.84262207 5.34221436 9.22821289 6.09849121 9.62548828 6.87768555 C10.21305908 8.1138562 10.21305908 8.1138562 10.8125 9.375 C11.23772949 10.22553955 11.66295898 11.0760791 12.10107422 11.95239258 C13.42673105 14.62312167 14.71766796 17.30823144 16 20 C16.39654785 20.82580566 16.7930957 21.65161133 17.20166016 22.50244141 C18.68405819 25.59497669 20.16199236 28.68902799 21.60473633 31.80029297 C24.89388121 38.89092566 28.41099948 45.86590556 31.92010498 52.84927368 C33.69105717 56.37631419 35.45456646 59.90707047 37.21875 63.4375 C37.93095289 64.86199751 38.64319262 66.28647661 39.35546875 67.7109375 C43.64453125 76.2890625 43.64453125 76.2890625 44.71543884 78.43089294 C45.42177223 79.84354961 46.12812173 81.25619823 46.83448792 82.6688385 C48.63084707 86.26137416 50.42689385 89.85406547 52.22241211 93.44702148 C52.58302734 94.16853394 52.94364258 94.89004639 53.31518555 95.63342285 C53.99782592 96.99925601 54.68036846 98.36513807 55.36279297 99.7310791 C57.39561745 103.79805394 59.43977736 107.85898211 61.50390625 111.91015625 C62.41828156 115.76205223 61.97484742 119.29431343 59.99633789 122.75610352 C58.64220602 124.64413378 57.21686052 126.44817258 55.75 128.25 C54.64734804 129.6585747 53.54853503 131.07016112 52.453125 132.484375 C51.88271484 133.21978516 51.31230469 133.95519531 50.72460938 134.71289062 C47.83689205 138.54246819 45.17521922 142.52047517 42.5 146.5 C37.99360275 153.16933371 33.32431799 159.66672205 28.45581055 166.07543945 C22.77114747 173.57649264 17.38107775 181.27964817 12 189 C11.54367187 189.65291016 11.08734375 190.30582031 10.6171875 190.97851562 C5.98424737 197.29491618 5.98424737 197.29491618 2 204 C1.34 204 0.68 204 0 204 C0 136.68 0 69.36 0 0 Z " fill="#2EB7A7" transform="translate(256,69)"/>
<path d="M0 0 C-0.51619067 4.11377853 -1.55473688 6.05341427 -4.47827148 8.96411133 C-5.21250839 9.7045015 -5.9467453 10.44489166 -6.70323181 11.2077179 C-7.50112625 11.9912413 -8.29902069 12.77476471 -9.12109375 13.58203125 C-9.93618912 14.39621017 -10.75128448 15.2103891 -11.59107971 16.04924011 C-13.31389075 17.76601361 -15.04155548 19.47792812 -16.77368164 21.18530273 C-19.4343206 23.80936431 -22.07854185 26.44914409 -24.72070312 29.09179688 C-26.39489105 30.75615671 -28.06999037 32.41960039 -29.74609375 34.08203125 C-30.93989906 35.27249809 -30.93989906 35.27249809 -32.15782166 36.48701477 C-32.89521072 37.21164413 -33.63259979 37.9362735 -34.39233398 38.68286133 C-35.04217758 39.32508133 -35.69202118 39.96730133 -36.36155701 40.62898254 C-38 42 -38 42 -40 42 C-40.33 42.99 -40.66 43.98 -41 45 C-42.5916748 46.57043457 -42.5916748 46.57043457 -44.60742188 48.23632812 C-48.70537615 51.71532768 -52.50764737 55.3939546 -56.28125 59.21875 C-56.93903442 59.88032104 -57.59681885 60.54189209 -58.27453613 61.22351074 C-60.35217274 63.31322735 -62.42650627 65.40617315 -64.5 67.5 C-67.2365815 70.263417 -69.97662263 73.02333722 -72.71875 75.78125 C-73.33045044 76.40124878 -73.94215088 77.02124756 -74.5723877 77.66003418 C-78.34003633 81.44862696 -82.23492414 85.01541934 -86.30456543 88.47839355 C-88.1603791 90.06790895 -88.1603791 90.06790895 -90.0625 92.5 C-92 94 -92 94 -95.03410339 93.76049805 C-99.59070765 92.9881213 -103.97311377 91.66521522 -108.3918457 90.33203125 C-109.30649094 90.06039154 -110.22113617 89.78875183 -111.16349792 89.50888062 C-114.16905304 88.61490786 -117.17242553 87.7138315 -120.17578125 86.8125 C-122.26837462 86.18817589 -124.36108368 85.56423945 -126.4539032 84.94067383 C-130.82996741 83.63569532 -135.2050353 82.32744664 -139.5793457 81.01660156 C-145.19489071 79.33386626 -150.8122061 77.65713794 -156.43018818 75.9825592 C-160.74651002 74.69566411 -165.06221794 73.40672122 -169.37770653 72.11703491 C-171.44971598 71.49785508 -173.52184034 70.87905967 -175.59407997 70.26065063 C-178.4816754 69.39834588 -181.36851325 68.53355333 -184.25512695 67.66796875 C-185.11590851 67.41131439 -185.97669006 67.15466003 -186.86355591 66.89022827 C-192.7707402 65.1146299 -192.7707402 65.1146299 -195 64 C-195 63.34 -195 62.68 -195 62 C-175.25148577 55.26966641 -155.40364884 48.88045192 -135.5 42.625 C-114.77191698 36.1103597 -94.07757181 29.50000269 -73.40752029 22.80366898 C-67.26688601 20.81444816 -61.12574626 18.82678801 -54.984375 16.83984375 C-54.33474352 16.62966551 -53.68511204 16.41948727 -53.01579475 16.20293999 C-41.85784323 12.5937799 -30.69346918 9.00531051 -19.51376343 5.46405029 C-17.89807755 4.95220757 -16.28269299 4.43941256 -14.66763306 3.92559814 C-12.5202563 3.24292349 -10.3717182 2.56406654 -8.22265625 1.88671875 C-7.05484619 1.51764404 -5.88703613 1.14856934 -4.68383789 0.76831055 C-2 0 -2 0 0 0 Z " fill="#2EB7A8" transform="translate(453,213)"/>
<path d="M0 0 C4.20515377 2.10257689 4.72511981 2.71870949 6.9375 6.5625 C10.04540052 11.65176994 13.46824704 16.35401171 17.125 21.0625 C21.71647699 26.98647321 26.19703331 32.96988401 30.5625 39.0625 C34.64537538 44.75787285 38.77672099 50.40789196 43 56 C47.75457453 62.29983079 52.39770338 68.67298372 57.00610352 75.08032227 C62.68556315 82.96991123 68.45674297 90.79068749 74.23388672 98.60888672 C77.15956103 102.56991162 80.07950306 106.53515717 83 110.5 C84.1666389 112.08335379 85.33330558 113.66668712 86.5 115.25 C88.83333333 118.41666667 91.16666667 121.58333333 93.5 124.75 C94.0784668 125.53487793 94.65693359 126.31975586 95.25292969 127.12841797 C96.41054264 128.69983388 97.56745271 130.27176784 98.72363281 131.84423828 C101.77303287 135.98959719 104.83685838 140.12324873 107.921875 144.2421875 C108.56253906 145.10134766 109.20320313 145.96050781 109.86328125 146.84570312 C111.09057077 148.49098255 112.32212292 150.13309376 113.55859375 151.77148438 C116.24887173 155.38674139 118.64492222 158.63942919 120 163 C116.66525971 164.11786021 115.19087776 164.07255726 111.85546875 162.8046875 C110.62500992 162.17651306 109.40285724 161.53191617 108.1875 160.875 C107.50880859 160.52244141 106.83011719 160.16988281 106.13085938 159.80664062 C103.7431878 158.55695903 101.3707006 157.28158218 99 156 C98.06494629 155.49500977 97.12989258 154.99001953 96.16650391 154.46972656 C92.05994978 152.24782936 87.95585641 150.02155173 83.85717773 147.78515625 C77.5904547 144.37243241 71.2830276 141.09429476 64.875 137.95703125 C59.49226798 135.29902928 54.24657998 132.41614193 49 129.5 C42.46411557 125.86888441 35.89290174 122.37503121 29.18359375 119.07617188 C20.03034049 114.56439623 11.02567764 109.76033406 2 105 C2 104.34 2 103.68 2 103 C1.34 103 0.68 103 0 103 C0 69.01 0 35.02 0 0 Z " fill="#2EB6A7" transform="translate(256,280)"/>
</svg>
